<?xml version="1.0" encoding="UTF-8"?>
<svg width="200px" height="200px" viewBox="0 0 200 200" version="1.1" xmlns="http://www.w3.org/2000/svg" xmlns:xlink="http://www.w3.org/1999/xlink">
    <!-- Generator: Sketch 40.3 (33839) - http://www.bohemiancoding.com/sketch -->
    <title>bullet-cct</title>
    <desc>Created with Sketch.</desc>
    <defs></defs>
    <g id="Page-1" stroke="none" stroke-width="1" fill="none" fill-rule="evenodd">
        <g id="bullet-cct">
            <path d="M99.5950249,199.18408 C154.602985,199.18408 199.19005,154.59602 199.19005,99.5890547 C199.19005,44.5870647 154.602985,0 99.5950249,0 C44.5930348,0 0,44.5870647 0,99.5880597 C0,154.59602 44.5930348,199.18408 99.5950249,199.18408" id="Shape" fill="#00539F"></path>
            <path d="M163.413518,74.4336923 L156.728992,74.4336923 C155.77406,74.4336923 154.819128,74.9111585 154.819128,76.3435569 L154.819128,85.8928799 L153.864196,84.9379476 L150.999399,85.4154138 L145.747271,71.5688954 L145.269805,49.1279864 L148.612068,46.7406557 L149.567,42.9209265 C149.567,42.9209265 149.567,33.3716035 148.612068,27.6420097 C147.179669,21.9124159 139.540211,21.9124159 139.540211,21.9124159 L60.2808303,21.9124159 C60.2808303,21.9124159 52.6413719,21.9124159 51.6864396,27.6420097 C50.7315073,33.8490697 50.7315073,43.3983927 50.7315073,43.3983927 L51.6864396,47.2181218 L54.5512365,49.6054526 L53.5963042,72.5238277 L48.8216427,85.8928799 L46.434312,84.9379476 L45.0019135,85.4154138 L45.0019135,75.8660908 C45.0019135,74.9111585 44.0469812,74.4336923 43.5695151,74.4336923 L36.884989,74.4336923 C35.9300567,74.4336923 34.9751244,74.9111585 34.9751244,76.3435569 L34.9751244,90.6675414 C34.9751244,91.6224737 35.4525905,92.577406 36.884989,92.577406 L43.5695151,92.577406 C44.5244474,92.577406 45.4793797,91.6224737 45.4793797,90.6675414 L45.4793797,87.3252784 L46.9117781,86.3703461 L48.3441766,86.8478122 L47.8667104,90.6675414 L44.5244474,97.3520675 L41.6596505,106.90139 L41.1821843,113.10845 C41.1821843,113.10845 40.7047182,123.13524 40.7047182,124.090172 C40.7047182,125.045104 42.1371166,130.297232 42.1371166,130.297232 C42.1371166,130.297232 42.1371166,130.774698 40.7047182,131.252164 C38.7948536,132.207096 39.2723197,137.459224 39.2723197,137.459224 L39.2723197,144.14375 C39.2723197,144.621216 40.227252,145.576149 41.6596505,146.531081 C41.6596505,148.440945 41.1821843,160.855065 42.1371166,161.809998 C42.6145828,164.197328 44.5244474,165.152261 44.5244474,165.152261 L58.8484318,165.152261 C58.8484318,165.152261 61.2357626,164.674795 61.7132287,162.76493 C62.1906949,161.332531 62.668161,157.512802 62.668161,157.512802 L63.6230933,148.918412 C70.3076194,149.395878 76.9921455,149.873344 80.8118747,149.873344 L119.964099,149.873344 C123.783828,149.395878 130.468354,149.395878 137.15288,148.918412 L138.107813,157.512802 C138.107813,157.512802 139.062745,161.332531 139.062745,162.76493 C139.540211,164.674795 141.927542,165.152261 141.927542,165.152261 L156.251526,165.152261 C156.251526,165.152261 158.161391,164.197328 158.161391,161.809998 C158.638857,160.855065 158.638857,148.440945 158.638857,146.531081 C159.593789,146.053615 161.026188,144.621216 161.026188,144.14375 C161.503654,143.666284 161.503654,137.459224 161.503654,137.459224 C161.503654,137.459224 161.98112,132.207096 159.593789,131.72963 C157.683925,131.252164 158.161391,130.774698 158.161391,130.774698 C158.161391,130.774698 159.593789,125.045104 159.593789,124.567638 C159.593789,123.612706 159.116323,113.585917 159.116323,113.585917 L158.638857,107.378857 L155.77406,98.3069998 L152.431797,91.6224737 L151.954331,87.8027445 L153.864196,86.8478122 L155.296594,87.3252784 L155.296594,90.1900753 C155.296594,91.1450076 155.77406,92.0999399 157.206459,92.0999399 L163.413518,92.0999399 C164.368451,92.0999399 165.323383,91.1450076 165.323383,90.1900753 L165.323383,75.8660908 C165.323383,74.9111585 164.368451,74.4336923 163.413518,74.4336923 L163.413518,74.4336923 Z M108.027445,30.0293405 L112.324641,30.0293405 C113.279573,30.0293405 114.711971,30.5068066 114.711971,31.4617389 C114.711971,31.9392051 113.757039,32.8941374 112.324641,32.8941374 L108.027445,32.8941374 C107.072513,32.8941374 106.117581,32.4166712 106.117581,31.4617389 C106.117581,30.9842728 106.595047,30.0293405 108.027445,30.0293405 L108.027445,30.0293405 Z M96.5682576,30.0293405 L100.865453,30.0293405 C101.820385,30.0293405 103.252784,30.5068066 103.252784,31.4617389 C103.252784,31.9392051 102.297851,32.8941374 100.865453,32.8941374 L96.5682576,32.8941374 C95.6133253,32.8941374 94.658393,32.4166712 94.658393,31.4617389 C94.658393,30.9842728 95.1358592,30.0293405 96.5682576,30.0293405 L96.5682576,30.0293405 Z M85.5865362,30.0293405 L89.8837315,30.0293405 C90.8386638,30.0293405 92.2710623,30.5068066 92.2710623,31.4617389 C92.2710623,31.9392051 91.31613,32.8941374 89.8837315,32.8941374 L85.5865362,32.8941374 C84.6316039,32.8941374 83.1992054,32.4166712 83.1992054,31.4617389 C83.6766716,30.9842728 84.6316039,30.0293405 85.5865362,30.0293405 L85.5865362,30.0293405 Z M53.5963042,41.4885281 L53.5963042,41.4885281 L53.5963042,41.4885281 C53.5963042,34.3265358 59.325898,27.6420097 66.9653564,27.6420097 C73.6498825,27.6420097 78.9020101,32.4166712 80.3344085,39.1011973 L80.3344085,39.1011973 L80.3344085,39.5786635 L144.792339,39.5786635 L144.792339,43.3983927 L86.0640023,43.3983927 C85.5865362,42.4434604 84.6316039,41.4885281 83.1992054,41.4885281 L55.5061688,41.4885281 L53.5963042,41.4885281 L53.5963042,41.4885281 Z M46.434312,111.198586 C46.434312,110.243654 46.9117781,109.288721 48.3441766,109.288721 L49.776575,109.288721 C50.7315073,109.288721 51.6864396,110.243654 51.6864396,111.198586 L51.6864396,115.018315 C51.6864396,115.973247 51.2089734,116.92818 49.776575,116.92818 L48.3441766,116.92818 C47.3892443,116.92818 46.434312,116.450713 46.434312,115.018315 L46.434312,111.198586 L46.434312,111.198586 Z M51.2089734,125.52257 C51.2089734,126.477503 50.7315073,127.432435 49.2991089,127.432435 L47.8667104,127.432435 C46.9117781,127.432435 45.9568458,126.954969 45.9568458,125.52257 L45.9568458,121.702841 C45.9568458,120.747909 46.434312,119.792977 47.8667104,119.792977 L49.2991089,119.792977 C50.2540411,119.792977 51.2089734,120.747909 51.2089734,121.702841 L51.2089734,125.52257 L51.2089734,125.52257 Z M51.6864396,111.198586 C51.6864396,110.243654 52.1639057,109.288721 53.5963042,109.288721 L59.325898,109.288721 C60.2808303,109.288721 61.2357626,110.243654 61.2357626,111.198586 L61.2357626,115.018315 C61.2357626,115.973247 60.7582964,116.92818 59.325898,116.92818 L53.5963042,116.92818 C52.6413719,116.92818 51.6864396,116.450713 51.6864396,115.018315 L51.6864396,111.198586 L51.6864396,111.198586 Z M60.7582964,125.52257 C60.7582964,126.477503 60.2808303,127.432435 58.8484318,127.432435 L53.5963042,127.432435 C52.6413719,127.432435 51.6864396,126.954969 51.6864396,125.52257 L51.6864396,121.702841 C51.6864396,120.747909 52.1639057,119.792977 53.5963042,119.792977 L59.325898,119.792977 C60.2808303,119.792977 61.2357626,120.747909 61.2357626,121.702841 L61.2357626,125.52257 L60.7582964,125.52257 Z M61.2357626,115.018315 L61.2357626,111.198586 C61.2357626,110.243654 61.7132287,109.288721 63.1456272,109.288721 L68.875221,109.288721 C69.8301533,109.288721 70.7850856,110.243654 70.7850856,111.198586 L70.7850856,115.018315 C70.7850856,115.973247 70.3076194,116.92818 68.875221,116.92818 L63.1456272,116.92818 C62.1906949,116.450713 61.2357626,115.495781 61.2357626,115.018315 L61.2357626,115.018315 Z M70.3076194,125.52257 C70.3076194,126.477503 69.8301533,127.432435 68.3977548,127.432435 L62.668161,127.432435 C61.7132287,127.432435 60.7582964,126.954969 60.7582964,125.52257 L60.7582964,121.702841 C60.7582964,120.747909 61.2357626,119.792977 62.668161,119.792977 L68.3977548,119.792977 C69.3526871,119.792977 70.3076194,120.747909 70.3076194,121.702841 L70.3076194,125.52257 L70.3076194,125.52257 Z M141.450076,126.000036 C141.450076,126.954969 140.972609,127.909901 139.540211,127.909901 L133.810617,127.909901 C132.855685,127.909901 131.900753,126.954969 131.900753,126.000036 L131.900753,122.180307 C131.900753,121.225375 132.378219,120.270443 133.810617,120.270443 L139.540211,120.270443 C140.495143,120.270443 141.450076,120.747909 141.450076,122.180307 L141.450076,126.000036 L141.450076,126.000036 Z M132.378219,115.495781 L132.378219,111.676052 C132.378219,110.72112 133.333151,109.766187 134.288083,109.766187 L140.017677,109.766187 C140.972609,109.766187 141.927542,110.243654 141.927542,111.676052 L141.927542,115.495781 C141.927542,116.450713 141.450076,117.405646 140.017677,117.405646 L134.288083,117.405646 C133.333151,117.405646 132.378219,116.450713 132.378219,115.495781 L132.378219,115.495781 Z M52.1639057,89.7126091 C50.2540411,87.8027445 61.2357626,60.587174 61.2357626,60.587174 C61.2357626,60.587174 84.6316039,58.6773094 99.9105207,58.6773094 L101.342919,58.6773094 C116.621836,58.1998433 139.540211,60.587174 139.540211,60.587174 C139.540211,60.587174 150.521932,87.8027445 148.612068,89.7126091 C146.224737,91.6224737 54.0737703,91.6224737 52.1639057,89.7126091 L52.1639057,89.7126091 Z M142.405008,112.153518 C142.405008,111.198586 142.882474,110.243654 144.314873,110.243654 L150.044466,110.243654 C150.999399,110.243654 151.954331,110.72112 151.954331,112.153518 L151.954331,115.495781 C151.954331,116.450713 151.476865,117.405646 150.044466,117.405646 L144.314873,117.405646 C143.35994,117.405646 142.405008,116.92818 142.405008,115.495781 L142.405008,112.153518 L142.405008,112.153518 Z M150.999399,126.000036 C150.999399,126.954969 150.044466,127.909901 149.089534,127.909901 L143.837406,127.909901 C142.882474,127.909901 141.927542,126.954969 141.927542,126.000036 L141.927542,122.180307 C141.927542,121.225375 142.405008,120.270443 143.837406,120.270443 L149.567,120.270443 C150.521932,120.270443 151.476865,120.747909 151.476865,122.180307 L150.999399,126.000036 L150.999399,126.000036 L150.999399,126.000036 Z M156.728992,126.000036 C156.728992,126.954969 155.77406,127.909901 154.819128,127.909901 L153.386729,127.909901 C152.431797,127.909901 151.476865,126.954969 151.476865,126.000036 L151.476865,122.180307 C151.476865,121.225375 151.954331,120.270443 153.386729,120.270443 L154.819128,120.270443 C155.77406,120.270443 156.728992,120.747909 156.728992,122.180307 L156.728992,126.000036 L156.728992,126.000036 Z M153.386729,110.243654 L154.819128,110.243654 C155.77406,110.243654 156.728992,110.72112 156.728992,112.153518 L156.728992,115.495781 C156.728992,116.450713 155.77406,117.405646 154.819128,117.405646 L153.386729,117.405646 C152.431797,117.405646 151.476865,116.92818 151.476865,115.495781 L151.476865,111.676052 C151.476865,111.198586 152.431797,110.243654 153.386729,110.243654 L153.386729,110.243654 Z" id="Shape" fill="#FFFFFF"></path>
        </g>
    </g>
</svg>