<?xml version="1.0" encoding="UTF-8" standalone="no"?>
<!-- Created with Inkscape (http://www.inkscape.org/) -->
<svg
   xmlns:svg="http://www.w3.org/2000/svg"
   xmlns="http://www.w3.org/2000/svg"
   version="1.0"
   width="200"
   height="200"
   id="svg3108">
  <defs
     id="defs3110" />
  <g
     transform="translate(-278.37277,-331.37754)"
     id="layer1">
    <g
       transform="matrix(3.1746032,0,0,-3.1746032,378.37277,531.37754)"
       id="g21">
      <path
         d="M 0,0 C 17.397,0 31.5,14.102 31.5,31.5 C 31.5,48.897 17.397,63 0,63 C -17.397,63 -31.5,48.897 -31.5,31.5 C -31.5,14.102 -17.397,0 0,0"
         id="path23"
         style="fill:#9c3d97;fill-opacity:1;fill-rule:nonzero;stroke:none" />
    </g>
    <g
       transform="matrix(3.1746032,0,0,-3.1746032,368.89658,345.05373)"
       id="g29">
      <path
         d="M 0,0 L 5.639,0 L 7.237,-4.79 L 17.692,-4.781 L 18.646,-7.597 L 18.646,-33.966 L 15.442,-37.838 L -8.567,-37.847 L -12.631,-34.169 L -12.631,-7.529 L -11.242,-4.932 L -1.636,-4.959 L 0,0"
         id="path31"
         style="fill:#ffffff;fill-opacity:1;fill-rule:nonzero;stroke:none" />
    </g>
    <g
       transform="matrix(3.1746032,0,0,-3.1746032,337.58229,373.29183)"
       id="g33">
      <path
         d="M 0,0 C 0,0.392 0.317,0.708 0.709,0.708 C 1.1,0.708 1.418,0.392 1.418,0 C 1.418,-0.392 1.1,-0.709 0.709,-0.709 C 0.317,-0.709 0,-0.392 0,0"
         id="path35"
         style="fill:#9c3d97;fill-opacity:1;fill-rule:nonzero;stroke:none" />
    </g>
    <g
       transform="matrix(3.1746032,0,0,-3.1746032,415.75372,373.02516)"
       id="g37">
      <path
         d="M 0,0 C 0,0.39 0.317,0.709 0.708,0.709 C 1.1,0.709 1.417,0.39 1.417,0 C 1.417,-0.392 1.1,-0.709 0.708,-0.709 C 0.317,-0.709 0,-0.392 0,0"
         id="path39"
         style="fill:#9c3d97;fill-opacity:1;fill-rule:nonzero;stroke:none" />
    </g>
    <g
       transform="matrix(3.1746032,0,0,-3.1746032,360.45848,368.08548)"
       id="g41">
      <path
         d="M 0,0 C 0,0.531 0.431,0.963 0.964,0.963 L 10.177,0.963 C 10.709,0.963 11.141,0.531 11.141,0 L 11.141,-1.251 C 11.141,-1.783 10.709,-2.215 10.177,-2.215 L 0.964,-2.215 C 0.431,-2.215 0,-1.783 0,-1.251 L 0,0"
         id="path43"
         style="fill:#9c3d97;fill-opacity:1;fill-rule:nonzero;stroke:none" />
    </g>
    <g
       transform="matrix(3.1746032,0,0,-3.1746032,383.81089,389.15849)"
       id="g45">
      <path
         d="M 0,0 L 10.271,0.036 C 10.804,0.036 11.559,-0.425 11.523,-1.24 L 10.058,-12.375 C 10.058,-12.906 9.627,-13.338 9.095,-13.338 L 0,-13.338 C -0.532,-13.338 -0.964,-12.906 -0.964,-12.375 L -0.964,-0.963 C -0.964,-0.431 -0.532,0 0,0"
         id="path47"
         style="fill:#9c3d97;fill-opacity:1;fill-rule:nonzero;stroke:none" />
    </g>
    <g
       transform="matrix(3.1746032,0,0,-3.1746032,374.15372,388.66643)"
       id="g49">
      <path
         d="M 0,0 L -10.272,0.035 C -10.804,0.035 -11.559,-0.426 -11.523,-1.241 L -10.058,-12.375 C -10.058,-12.907 -9.627,-13.338 -9.095,-13.338 L 0,-13.338 C 0.532,-13.338 0.964,-12.907 0.964,-12.375 L 0.964,-0.964 C 0.964,-0.431 0.532,0 0,0"
         id="path51"
         style="fill:#9c3d97;fill-opacity:1;fill-rule:nonzero;stroke:none" />
    </g>
    <g
       transform="matrix(3.1746032,0,0,-3.1746032,347.85851,442.5077)"
       id="g53">
      <path
         d="M 0,0 C 0,0.856 0.695,1.55 1.551,1.55 C 2.406,1.55 3.1,0.856 3.1,0 C 3.1,-0.855 2.406,-1.55 1.551,-1.55 C 0.695,-1.55 0,-0.855 0,0"
         id="path55"
         style="fill:#9c3d97;fill-opacity:1;fill-rule:nonzero;stroke:none" />
    </g>
    <path
       d="M 346.22674,484.35532 L 412.15055,484.35532 L 412.15055,477.75816 L 346.22674,477.75816 L 346.22674,484.35532 z"
       id="path57"
       style="fill:#ffffff;fill-opacity:1;fill-rule:nonzero;stroke:none" />
    <g
       transform="matrix(3.1746032,0,0,-3.1746032,336.99817,429.03468)"
       id="g59">
      <path
         d="M 0,0 L -1.742,11.706 C -1.812,12.424 -2.092,12.522 -2.092,12.522 C -2.232,12.472 -2.148,12.216 -2.148,11.696 L -2.148,0.808 C -2.148,0.288 0.079,-0.803 0,0"
         id="path61"
         style="fill:#9c3d97;fill-opacity:1;fill-rule:nonzero;stroke:none" />
    </g>
    <g
       transform="matrix(3.1746032,0,0,-3.1746032,420.28706,429.13944)"
       id="g63">
      <path
         d="M 0,0 L 1.515,11.696 C 1.576,12.415 1.82,12.514 1.82,12.514 C 1.942,12.463 1.869,12.206 1.869,11.687 L 1.869,0.808 C 1.869,0.288 -0.069,-0.803 0,0"
         id="path65"
         style="fill:#9c3d97;fill-opacity:1;fill-rule:nonzero;stroke:none" />
    </g>
    <g
       transform="matrix(3.1746032,0,0,-3.1746032,354.65531,497.54579)"
       id="g67">
      <path
         d="M 0,0 L 14.808,0 L 14.284,1.182 L 0.608,1.189 L 0,0 z M 13.906,3.078 L 13.576,3.693 L 15.459,3.693 L 15.805,3.078 L 17.055,3.078 L 18.194,1.191 L 16.877,1.191 L 17.569,0.01 L 18.912,0.01 L 20.245,-2.201 L 18.802,-2.201 L 20.001,-4.298 L 16.581,-4.298 L 15.594,-2.219 L -0.808,-2.227 L -1.864,-4.298 L -5.24,-4.298 L -4.042,-2.201 L -5.485,-2.201 L -4.177,0.01 L -2.792,0.01 L -2.117,1.191 L -3.434,1.191 L -2.295,3.078 L -1.045,3.078 L -0.699,3.693 L 1.184,3.693 L 0.854,3.078 L 13.906,3.078"
         id="path69"
         style="fill:#ffffff;fill-opacity:1;fill-rule:nonzero;stroke:none" />
    </g>
    <path
       d="M 333.98229,381.02516 L 420.78229,381.02516 L 420.78229,379.20553 L 333.98229,379.20553 L 333.98229,381.02516 z"
       id="path71"
       style="fill:#9c3d97;fill-opacity:1;fill-rule:nonzero;stroke:none" />
    <g
       transform="matrix(3.1746032,0,0,-3.1746032,401.03944,442.14579)"
       id="g73">
      <path
         d="M 0,0 C 0,0.856 0.695,1.55 1.551,1.55 C 2.407,1.55 3.1,0.856 3.1,0 C 3.1,-0.856 2.407,-1.549 1.551,-1.549 C 0.695,-1.549 0,-0.856 0,0"
         id="path75"
         style="fill:#9c3d97;fill-opacity:1;fill-rule:nonzero;stroke:none" />
    </g>
    <g
       transform="matrix(3.1746032,0,0,-3.1746032,420.24896,465.15849)"
       id="g77">
      <path
         d="M 0,0 L 0,-1.044 L -1.014,-1.625 L -4.29,-1.625 L -4.29,-3.443 L -22.127,-3.443 L -22.127,-1.625 L -24.666,-1.625 L -25.584,-1.047 L -25.584,0.046 L -24.692,-0.529 L -0.775,-0.529 L 0,0"
         id="path79"
         style="fill:#ffffff;fill-opacity:1;fill-rule:nonzero;stroke:none" />
    </g>
  </g>
</svg>
