<?xml version="1.0" encoding="utf-8"?>
<!-- Generator: Adobe Illustrator 15.0.2, SVG Export Plug-In . SVG Version: 6.00 Build 0)  -->
<!DOCTYPE svg PUBLIC "-//W3C//DTD SVG 1.1//EN" "http://www.w3.org/Graphics/SVG/1.1/DTD/svg11.dtd">
<svg version="1.1" id="Layer_1" xmlns="http://www.w3.org/2000/svg" xmlns:xlink="http://www.w3.org/1999/xlink" x="0px" y="0px"
	 width="200px" height="200px" viewBox="0 0 200 200" enable-background="new 0 0 200 200" xml:space="preserve">
<path fill="#231F20" d="M99.988,200.409c55.226,0,99.988-44.763,99.988-99.988c0-55.219-44.763-99.982-99.988-99.982
	C44.769,0.439,0,45.202,0,100.421C0,155.646,44.769,200.409,99.988,200.409"/>
<path fill="#FFFFFF" d="M56.956,151.397c0-2.028,1.647-3.676,3.676-3.676h8.021c2.029,0,3.669,1.647,3.669,3.676v12.256
	c0,2.036-1.641,3.677-3.669,3.677h-8.021c-2.029,0-3.676-1.641-3.676-3.677V151.397z"/>
<path fill="#FFFFFF" d="M131.897,151.048c0-2.029,1.641-3.676,3.676-3.676h8.014c2.035,0,3.68,1.646,3.68,3.676v12.256
	c0,2.029-1.645,3.677-3.68,3.677h-8.014c-2.035,0-3.676-1.647-3.676-3.677V151.048z"/>
<path fill="#FFFFFF" d="M156.575,142.646l2.34-20.658l-3.046-73.562c0-4.134-2.077-18.406-8.39-19.138H56.466
	c-7.691,0.242-9.541,14.266-9.083,19.138l-4.562,75.565l2.535,18.14C45.356,146.259,156.575,146.78,156.575,142.646"/>
<path fill="#FFFFFF" d="M42.359,143.015c0-2.144,1.647-3.873,3.676-3.873h110.266c2.026,0,3.677,1.729,3.677,3.873v7.073
	c0,2.137-1.65,3.873-3.677,3.873H46.035c-2.029,0-3.676-1.736-3.676-3.873V143.015z"/>
<path fill="#231F20" d="M51.842,130.759c0-1.075,0.82-1.939,1.836-1.939h5.63c1.016,0,1.836,0.864,1.836,1.939v4.052
	c0,1.068-0.82,1.939-1.836,1.939h-5.63c-1.016,0-1.836-0.871-1.836-1.939V130.759z"/>
<path fill="#231F20" d="M63.309,130.771c0-1.068,0.82-1.939,1.836-1.939h5.63c1.016,0,1.836,0.871,1.836,1.939v4.058
	c0,1.068-0.82,1.934-1.836,1.934h-5.63c-1.016,0-1.836-0.865-1.836-1.934V130.771z"/>
<path fill="#231F20" d="M130.606,130.53c0-1.068,0.826-1.94,1.835-1.94h5.638c1.015,0,1.835,0.872,1.835,1.94v4.051
	c0,1.075-0.82,1.94-1.835,1.94h-5.638c-1.009,0-1.835-0.865-1.835-1.94V130.53z"/>
<path fill="#231F20" d="M142.073,130.543c0-1.068,0.827-1.934,1.835-1.934h5.639c1.008,0,1.828,0.865,1.828,1.934v4.058
	c0,1.068-0.82,1.939-1.828,1.939h-5.639c-1.008,0-1.835-0.871-1.835-1.939V130.543z"/>
<path fill="#231F20" d="M57.178,54.367h89.917c3.091,0,5.594,2.729,5.594,6.093l1.46,45.087c0,3.365-3.963,5.477-7.054,5.477H57.178
	c-3.083,0-8.147-2.493-8.147-5.857l1.634-44.579C50.665,57.216,54.095,54.367,57.178,54.367"/>
<path fill="#231F20" d="M58.507,47.778l1.348-10.793c0-1.113,1.948-2.531,3.042-2.531h77.773c1.068,0,1.962,0.954,1.962,2.061
	l1.202,11.105c0,1.145-2.096,2.22-3.164,2.22H60.474C59.38,49.838,58.507,48.922,58.507,47.778"/>
<path fill="#231F20" d="M50.118,41.945c0-0.999,0.82-1.813,1.836-1.813h2.862c1.013,0,1.833,0.814,1.833,1.813
	s-0.82,1.813-1.833,1.813h-2.862C50.938,43.758,50.118,42.944,50.118,41.945"/>
<path fill="#231F20" d="M145.19,41.545c0-0.999,0.82-1.813,1.835-1.813h2.855c1.021,0,1.841,0.814,1.841,1.813
	s-0.82,1.806-1.841,1.806h-2.855C146.011,43.351,145.19,42.543,145.19,41.545"/>
</svg>
