<?xml version="1.0" encoding="utf-8"?>
<!-- Generator: Adobe Illustrator 15.0.2, SVG Export Plug-In . SVG Version: 6.00 Build 0)  -->
<!DOCTYPE svg PUBLIC "-//W3C//DTD SVG 1.1//EN" "http://www.w3.org/Graphics/SVG/1.1/DTD/svg11.dtd">
<svg version="1.1" id="Layer_1" xmlns="http://www.w3.org/2000/svg" xmlns:xlink="http://www.w3.org/1999/xlink" x="0px" y="0px"
	 width="200px" height="200px" viewBox="0 0 200 200" enable-background="new 0 0 200 200" xml:space="preserve">
<path fill="#3878B6" d="M100.093,200.18c55.283,0,100.093-44.811,100.093-100.093C200.186,44.81,155.376,0,100.093,0
	C44.816,0,0,44.81,0,100.086C0,155.369,44.816,200.18,100.093,200.18"/>
<path fill="#FFFFFF" d="M150.04,37.319l2.533,51.25l-3.625,28.531c0,3.349-2.716,6.063-6.063,6.063H58.38
	c-3.351,0-6.066-2.716-6.066-6.063l-3.241-27.96l2.787-51.695C51.742,37.685,150.227,37.227,150.04,37.319"/>
<path fill="#FFFFFF" d="M60.087,18.789l82.577-0.032c3.348,0,6.804,4.447,6.804,7.793l0.453,9.187H52.106l0.408-9.155
	C52.514,23.232,56.74,18.789,60.087,18.789"/>
<rect x="87.012" y="41.776" fill="#3878B6" width="27.487" height="78.039"/>
<path fill="#3878B6" d="M56.133,51.705c0-3.349,2.715-6.064,6.063-6.064h12.003c3.344,0,6.06,2.715,6.06,6.064v21.816
	c0,3.346-2.715,6.064-6.06,6.064H62.196c-3.347,0-6.063-2.719-6.063-6.064V51.705z"/>
<path fill="#3878B6" d="M120.298,52.924c0-3.349,2.716-6.064,6.063-6.064h12.002c3.346,0,6.058,2.715,6.058,6.064V74.74
	c0,3.346-2.712,6.061-6.058,6.061h-12.004c-3.346,0-6.063-2.715-6.063-6.061L120.298,52.924L120.298,52.924z"/>
<path fill="#FFFFFF" d="M91.81,52.281c0-3.349,2.715-6.063,6.063-6.063h5.965c3.352,0,6.066,2.712,6.066,6.063v20.664
	c0,3.349-2.717,6.061-6.066,6.061h-5.965c-3.348,0-6.063-2.712-6.063-6.061V52.281z"/>
<path fill="#3878B6" d="M95,24.458c0-1.117,0.902-2.021,2.018-2.021h8.341c1.119,0,2.023,0.904,2.023,2.021v5.132
	c0,1.117-0.904,2.021-2.023,2.021h-8.341c-1.116,0-2.018-0.904-2.018-2.021V24.458z"/>
<rect x="108.838" y="23.875" fill="#3878B6" width="12.666" height="1.885"/>
<rect x="108.854" y="27.046" fill="#3878B6" width="12.664" height="1.881"/>
<rect x="80.779" y="23.984" fill="#3878B6" width="12.666" height="1.881"/>
<rect x="80.796" y="27.154" fill="#3878B6" width="12.664" height="1.878"/>
<path fill="#3878B6" d="M66.451,92.679c0-2.805,2.271-5.074,5.076-5.074c2.8,0,5.071,2.27,5.071,5.074
	c0,2.798-2.271,5.071-5.071,5.071C68.722,97.75,66.451,95.477,66.451,92.679"/>
<path fill="#3878B6" d="M58.263,93.025c0-1.607,1.3-2.906,2.908-2.906c1.603,0,2.905,1.299,2.905,2.906
	c0,1.604-1.302,2.903-2.905,2.903C59.563,95.929,58.263,94.63,58.263,93.025"/>
<path fill="#3878B6" d="M124.223,92.679c0-2.805,2.271-5.074,5.073-5.074c2.8,0,5.071,2.27,5.071,5.074
	c0,2.798-2.271,5.071-5.071,5.071C126.494,97.75,124.223,95.477,124.223,92.679"/>
<path fill="#3878B6" d="M136.746,93.025c0-1.607,1.301-2.906,2.908-2.906c1.604,0,2.904,1.299,2.904,2.906
	c0,1.604-1.302,2.903-2.904,2.903C138.047,95.929,136.746,94.63,136.746,93.025"/>
<polygon fill="#FFFFFF" points="65.174,118.563 65.174,136.364 72.626,136.364 72.626,129.988 79.97,129.988 79.97,118.563 
	120.441,118.563 120.441,129.988 127.855,129.988 127.855,136.364 135.389,136.364 135.348,118.563 "/>
<path fill="#FFFFFF" d="M129.189,142.009l-1.465-2.743h8.396l1.542,2.743h5.574l5.086,8.417h-5.875l3.085,5.27h5.987l5.942,9.861
	h-6.429l5.34,9.348h-15.246l-4.404-9.273l-73.153,0.038l-4.704,9.235H43.81l5.347-9.348h-6.442l5.838-9.861h6.174l3.012-5.27h-5.874
	l5.078-8.417h5.576l1.547-2.743h8.395l-1.471,2.743H129.189z M68.666,155.734h66.037l-2.337-5.264l-60.988-0.039L68.666,155.734z"/>
</svg>
