<?xml version="1.0" encoding="utf-8"?>
<!-- Generator: Adobe Illustrator 15.0.2, SVG Export Plug-In . SVG Version: 6.00 Build 0)  -->
<!DOCTYPE svg PUBLIC "-//W3C//DTD SVG 1.1//EN" "http://www.w3.org/Graphics/SVG/1.1/DTD/svg11.dtd">
<svg version="1.1" id="Layer_1" xmlns="http://www.w3.org/2000/svg" xmlns:xlink="http://www.w3.org/1999/xlink" x="0px" y="0px"
	 width="200px" height="200px" viewBox="0 0 200 200" enable-background="new 0 0 200 200" xml:space="preserve">
<path fill="#45647B" d="M100.041,199.717c54.996,0,99.582-44.591,99.582-99.58c0-54.998-44.586-99.585-99.582-99.585
	c-54.995,0-99.582,44.587-99.582,99.585C0.458,155.126,45.046,199.717,100.041,199.717"/>
<path fill="#FFFFFF" d="M127.081,138.351h6.6v-4.018h3.851l8.883-19.178l0.014-57.229H51.74l0.006,57.339l8.909,19.005h4.107v4.08
	h6.613v-6.781l3.352-0.034l4.417-7.047l0.006-6.938h5.672l0.269-51.521c0.132-1.728,1.122-1.566,3.792-1.765
	c0.331-0.023,7.01-0.038,20.037-0.038c2.902,0,4.16-0.32,4.163,2.335v50.989h5.797l-0.012,6.978l4.507,7.058h3.706V138.351z"/>
<path fill="#FFFFFF" d="M100.978,22.684V18.83l6.887,0.2c-0.721-0.133,9.091,1.072,12.414,3.379c0.544,0.39,1.221,0.833,1.731,0.28
	c0.248-0.286,2.964-3.317,2.986-3.349c-1.884-2.476-4.727-4.792-5.371-5.072l-11.746-1.891H89.537l-9.705,1.83
	c-0.4,0.073-5.322,4.632-5.278,5.351c0.003,0.029,2.713,3.416,2.981,3.403c0.039-0.003,0.529-0.245,1.47-0.731
	c3.278-1.687,6.658-2.698,10.149-3.034l7.909-0.367v3.854h-2.22v6.536h2.22v8.213l-23.496,1.802
	c-4.124,0.729-13.146,1.292-18.907,6.557c-2.616,2.39-2.803,9.572-2.929,9.572h94.691c0.031,0-0.2-7.842-3.468-9.889
	c-6.136-3.854-11.147-4.646-21.54-6.446l-20.437-1.597V29.22c0,0,1.823,0.02,1.855,0v-6.536H100.978z"/>
<path fill="#FFFFFF" d="M93.145,67.016h10.468c2.13,0,3.86,1.728,3.86,3.861v11.268c0,2.134-1.73,3.861-3.86,3.861H93.145
	c-2.133,0-3.861-1.727-3.861-3.861V70.877C89.284,68.744,91.012,67.016,93.145,67.016"/>
<path fill="#45647B" d="M120.122,64.292h14.031c0.647,0,1.355,0.382,1.355,1.12V82.6c0.006,0.815-0.512,1.63-1.355,1.63h-13.998
	c-0.844,0-1.359-0.817-1.359-1.63V65.412C118.796,64.689,119.479,64.292,120.122,64.292"/>
<path fill="#45647B" d="M62.409,64.128h14.028c0.65,0,1.359,0.385,1.359,1.119v17.189c0.003,0.815-0.516,1.63-1.359,1.63H62.439
	c-0.841,0-1.359-0.814-1.359-1.63V65.248C61.081,64.525,61.764,64.128,62.409,64.128"/>
<path fill="#45647B" d="M70.294,102.581c0-2.503,2.03-4.535,4.536-4.535c2.504,0,4.535,2.032,4.535,4.535
	c0,2.505-2.031,4.536-4.535,4.536C72.324,107.117,70.294,105.086,70.294,102.581"/>
<path fill="#45647B" d="M119.132,52.495h16.275c0.022,0.017,0.091-1.975,0.068-3.668c-0.018-1.521-0.046-1.89-1.547-2.384
	c-8.383-2.77-10.32-2.172-12.62-2.212c-1.137-0.022-1.964,0.34-2.177,1.08V52.495z"/>
<path fill="#45647B" d="M78.972,52.568H62.837c-0.021,0.017-0.087-1.976-0.07-3.668c0.019-1.522,0.047-1.89,1.55-2.385
	c8.383-2.77,10.32-2.171,12.622-2.212c1.138-0.024,1.96,0.34,2.177,1.08L78.972,52.568z"/>
<path fill="#45647B" d="M117.924,102.413c0-2.507,2.029-4.535,4.537-4.535c2.503,0,4.533,2.028,4.533,4.535
	c0,2.505-2.03,4.534-4.533,4.534C119.953,106.947,117.924,104.918,117.924,102.413"/>
<rect x="80.929" y="119.219" fill="#FFFFFF" width="36.018" height="7.089"/>
<path fill="#45647B" d="M88.685,43.145h21.217c2.135,0,3.861,1.728,3.861,3.861v1.816c0,2.13-1.727,3.86-3.861,3.86H88.685
	c-2.133,0-3.861-1.73-3.861-3.86v-1.816C84.824,44.873,86.552,43.145,88.685,43.145"/>
<path fill="#FFFFFF" d="M87.504,47.839c0-1.637,1.328-2.964,2.963-2.964s2.963,1.327,2.963,2.964c0,1.635-1.328,2.962-2.963,2.962
	S87.504,49.474,87.504,47.839"/>
<path fill="#FFFFFF" d="M105.369,47.922c0-1.635,1.328-2.963,2.962-2.963c1.638,0,2.965,1.329,2.965,2.963
	c0,1.635-1.327,2.963-2.965,2.963C106.697,50.885,105.369,49.557,105.369,47.922"/>
<path fill="#FFFFFF" d="M126.382,144.527l-1.407-2.621h8.021l1.477,2.621h5.323l4.854,8.041h-5.612l2.947,5.026h5.725l5.675,9.424
	h-6.146l5.105,8.928h-14.566l-4.207-8.856l-69.869,0.036l-4.494,8.82H44.819l5.105-8.928h-6.149l5.575-9.424h5.898l2.877-5.026
	h-5.613l4.855-8.041h5.325l1.474-2.621h8.02l-1.403,2.621H126.382z M68.564,157.637h63.074l-2.229-5.03l-58.257-0.034
	L68.564,157.637z"/>
</svg>
