<?xml version="1.0" encoding="utf-8"?>
<!-- Generator: Adobe Illustrator 15.0.2, SVG Export Plug-In . SVG Version: 6.00 Build 0)  -->
<!DOCTYPE svg PUBLIC "-//W3C//DTD SVG 1.1//EN" "http://www.w3.org/Graphics/SVG/1.1/DTD/svg11.dtd">
<svg version="1.1" id="Layer_1" xmlns="http://www.w3.org/2000/svg" xmlns:xlink="http://www.w3.org/1999/xlink" x="0px" y="0px"
	 width="200px" height="198.176px" viewBox="0 0 200 198.176" enable-background="new 0 0 200 198.176" xml:space="preserve">
<path fill="#207200" d="M99.928,198.176c55.188,0,99.93-44.389,99.93-99.137c0-54.754-44.742-99.137-99.93-99.137
	C44.743-0.097,0,44.285,0,99.04C0,153.788,44.743,198.176,99.928,198.176"/>
<path fill="#FFFFFF" d="M99.587,11.341h3.86v5.105l-1.933,1.915V29.21h30.441c2.788,0,7.082,1.698,7.727,5.106
	c0.638,3.398,8.568,55.51,8.568,56.576c0,1.059,0.435,6.592,0.211,9.145c-0.211,2.546-1.493,47.641-1.493,47.641h-10.533v-19.146
	H63.548v19.146h-11.76c0,0-1.292-45.095-1.504-47.641c-0.212-2.553,0.212-8.086,0.212-9.145c0-1.066,7.931-53.178,8.579-56.576
	c0.645-3.408,4.931-5.106,7.716-5.106h30.437V18.361L95.3,16.446v-5.105H99.587z"/>
<polygon fill="#FFFFFF" points="61.431,161.929 66.573,161.929 55.216,178.306 46.853,178.306 "/>
<polygon fill="#FFFFFF" points="137.743,161.929 132.601,161.929 144.608,178.52 152.967,178.52 "/>
<path fill="#207200" d="M96.372,37.185c0-1.822,1.487-3.296,3.321-3.296c1.84,0,3.328,1.475,3.328,3.296s-1.487,3.296-3.328,3.296
	C97.859,40.481,96.372,39.006,96.372,37.185"/>
<path fill="#207200" d="M143.697,91.951c0-1.065-5.148-40.411-5.148-40.411s-0.205-2.125-1.066-2.125h-4.207l-0.322,1.698
	l4.394,40.838c0,0,0.143,2.25,0.929,2.615c1.134,0.527,4.121,0.322,4.672,0.043C144.02,94.077,143.697,93.017,143.697,91.951"/>
<path fill="#207200" d="M54.947,91.951c0-1.065,5.143-40.411,5.143-40.411s0.212-2.125,1.072-2.125h4.201l0.325,1.698l-4.396,40.838
	c0,0-0.136,2.25-0.923,2.615c-1.132,0.527-4.114,0.087-4.673-0.167C55.077,94.12,54.947,93.017,54.947,91.951"/>
<polygon fill="#FFFFFF" points="99.656,139.593 122.011,139.593 122.011,131.934 133.585,131.934 133.585,155.337 130.593,155.337 
	130.593,160.864 127.612,160.864 127.612,149.376 126.256,149.376 126.256,152.567 103.875,152.567 103.875,149.376 99.631,149.376 
	95.384,149.376 95.384,152.567 73.006,152.567 73.006,149.376 71.657,149.376 71.657,161.081 68.666,161.081 68.666,155.554 
	66.453,155.554 66.453,131.934 77.251,131.934 77.251,139.593 "/>
<rect x="79.116" y="132.362" fill="#FFFFFF" width="40.702" height="5.221"/>
<path fill="#207200" d="M130.109,52.569c-0.545-4.151-0.812-4.66-1.041-5.465c-0.923-3.278-3.699-4.183-6.939-4.183H99.925H77.719
	c-3.236,0-6.012,0.905-6.935,4.183c-0.228,0.799-0.383,1.351-0.929,5.465H130.109z"/>
<path fill="#207200" d="M69.622,55.116c-1.682,13.092-4.395,36.123-4.395,37.152c0,1.456,0.463,4.374,5.552,4.374
	c5.091,0,29.143,0.068,29.143,0.068s24.059-0.068,29.146-0.068c5.093,0,5.552-2.918,5.552-4.374c0-1.029-2.484-24.06-4.164-37.152
	H69.622z"/>
<path fill="#207200" d="M65.375,107.913c0-2.466,2.014-4.468,4.499-4.468c2.487,0,4.504,2.002,4.504,4.468s-2.017,4.467-4.504,4.467
	C67.388,112.379,65.375,110.378,65.375,107.913"/>
<path fill="#207200" d="M65.375,118.551c0-2.473,2.014-4.468,4.499-4.468c2.487,0,4.504,1.995,4.504,4.468
	c0,2.466-2.017,4.461-4.504,4.461C67.388,123.012,65.375,121.017,65.375,118.551"/>
<path fill="#207200" d="M125.072,108.129c0-2.473,2.02-4.468,4.504-4.468c2.485,0,4.505,1.995,4.505,4.468
	c0,2.46-2.02,4.461-4.505,4.461C127.092,112.59,125.072,110.589,125.072,108.129"/>
<path fill="#207200" d="M125.072,118.761c0-2.466,2.02-4.467,4.504-4.467c2.485,0,4.505,2.001,4.505,4.467
	c0,2.467-2.02,4.468-4.505,4.468C127.092,123.229,125.072,121.228,125.072,118.761"/>
</svg>
