<?xml version="1.0" encoding="utf-8"?>
<!-- Generator: Adobe Illustrator 15.0.2, SVG Export Plug-In . SVG Version: 6.00 Build 0)  -->
<!DOCTYPE svg PUBLIC "-//W3C//DTD SVG 1.1//EN" "http://www.w3.org/Graphics/SVG/1.1/DTD/svg11.dtd">
<svg version="1.1" id="Layer_1" xmlns="http://www.w3.org/2000/svg" xmlns:xlink="http://www.w3.org/1999/xlink" x="0px" y="0px"
	 width="200px" height="200px" viewBox="0 0 200 200" enable-background="new 0 0 200 200" xml:space="preserve">
<path fill="#FF8F1C" d="M99.988,199.967c55.226,0,99.988-44.76,99.988-99.985C199.977,44.763,155.214,0,99.988,0
	C44.769,0,0,44.763,0,99.982C0,155.207,44.769,199.967,99.988,199.967"/>
<polygon fill="#FFFFFF" points="54.806,119.415 54.907,57.146 145.613,57.213 145.651,119.428 112.527,119.394 87.723,119.415 "/>
<rect x="88.632" y="59.102" fill-rule="evenodd" clip-rule="evenodd" fill="#FF8F1C" width="23.905" height="56.106"/>
<path fill="#FFFFFF" d="M91.984,66.645c0-2.159,1.698-3.908,3.797-3.908h9.257c2.096,0,3.797,1.749,3.797,3.908v9.718
	c0,2.166-1.701,3.918-3.797,3.918h-9.257c-2.099,0-3.797-1.752-3.797-3.918V66.645z"/>
<path fill="#FF8F1C" d="M118.986,69.046c0-2.162,1.701-3.911,3.797-3.911h12.66c2.092,0,3.797,1.749,3.797,3.911v17.605
	c0,2.163-1.705,3.915-3.797,3.915h-12.66c-2.096,0-3.797-1.752-3.797-3.915V69.046z"/>
<path fill="#FF8F1C" d="M61.022,68.89c0-2.166,1.698-3.915,3.797-3.915h12.657c2.096,0,3.797,1.749,3.797,3.915v17.602
	c0,2.162-1.701,3.911-3.797,3.911H64.82c-2.099,0-3.797-1.749-3.797-3.911V68.89z"/>
<path fill="#FFFFFF" d="M92.391,88.921c0-2.166,1.698-3.915,3.797-3.915h9.257c2.096,0,3.797,1.749,3.797,3.915v9.715
	c0,2.163-1.701,3.915-3.797,3.915h-9.257c-2.099,0-3.797-1.752-3.797-3.915V88.921z"/>
<path fill="#FFFFFF" d="M55.14,55.435c-0.07,0-1.059-2.767,0.331-6.277c1.81-4.675,5.024-4.955,14.488-7.584
	c19.262-5.005,34.097-3.587,50.919-2.271c8.574,1.574,12.619,3.113,20.022,6.668c5.564,2.665,4.84,3.098,5.081,8.437l-0.33,1.027
	H55.14z"/>
<path fill="#FF8F1C" d="M86.556,46.801c0-2.163,1.701-3.912,3.797-3.912h18.753c2.093,0,3.794,1.749,3.794,3.912v1.867
	c0,2.163-1.701,3.915-3.794,3.915H90.353c-2.096,0-3.797-1.752-3.797-3.915V46.801z"/>
<path fill="#FF8F1C" d="M58.196,50.093c-0.02-1.142,0.868-2.086,1.968-2.102c1.113-0.019,2.029,0.891,2.042,2.032
	c0.019,1.142-0.858,2.083-1.965,2.099C59.13,52.147,58.215,51.241,58.196,50.093"/>
<path fill="#FF8F1C" d="M63.786,50.102c-0.019-1.145,0.868-2.086,1.969-2.105c1.113-0.016,2.029,0.891,2.042,2.035
	c0.019,1.135-0.859,2.08-1.969,2.105C64.721,52.153,63.805,51.247,63.786,50.102"/>
<path fill="#FF8F1C" d="M69.38,50.108c-0.019-1.142,0.865-2.083,1.965-2.102c1.113-0.019,2.029,0.891,2.042,2.032
	c0.019,1.139-0.858,2.08-1.965,2.105C70.312,52.163,69.399,51.253,69.38,50.108"/>
<path fill="#FF8F1C" d="M74.971,50.118c-0.019-1.145,0.865-2.086,1.972-2.102c1.106-0.019,2.022,0.884,2.042,2.032
	c0.019,1.138-0.865,2.08-1.972,2.099C75.902,52.169,74.99,51.26,74.971,50.118"/>
<path fill="#FF8F1C" d="M80.561,50.128c-0.019-1.145,0.865-2.089,1.972-2.105c1.107-0.019,2.022,0.891,2.042,2.032
	c0.013,1.138-0.865,2.083-1.972,2.102C81.493,52.182,80.58,51.27,80.561,50.128"/>
<path fill="#FF8F1C" d="M115.046,50.201c-0.019-1.142,0.865-2.083,1.972-2.102s2.022,0.891,2.042,2.032
	c0.019,1.139-0.865,2.083-1.972,2.102C115.98,52.255,115.065,51.346,115.046,50.201"/>
<path fill="#FF8F1C" d="M120.637,50.213c-0.02-1.148,0.865-2.089,1.972-2.105c1.106-0.019,2.022,0.887,2.041,2.032
	c0.02,1.138-0.861,2.083-1.972,2.099C121.571,52.265,120.655,51.355,120.637,50.213"/>
<path fill="#FF8F1C" d="M126.228,50.217c-0.017-1.142,0.864-2.086,1.972-2.102c1.106-0.019,2.022,0.891,2.041,2.032
	c0.02,1.138-0.861,2.083-1.972,2.105C127.162,52.271,126.246,51.362,126.228,50.217"/>
<path fill="#FF8F1C" d="M131.817,50.226c-0.016-1.145,0.865-2.086,1.972-2.102c1.107-0.019,2.022,0.891,2.042,2.032
	c0.02,1.139-0.862,2.08-1.972,2.099C132.753,52.281,131.837,51.371,131.817,50.226"/>
<path fill="#FF8F1C" d="M137.411,50.236c-0.021-1.145,0.862-2.089,1.969-2.105c1.106-0.019,2.022,0.891,2.042,2.036
	c0.019,1.135-0.862,2.08-1.969,2.099C138.344,52.287,137.428,51.381,137.411,50.236"/>
<path fill="#FFFFFF" d="M123.413,144.232l-1.167-2.337h6.665l1.228,2.337h4.427l4.035,7.172h-4.665l2.452,4.486h4.754l4.72,8.399
	h-5.107l4.248,7.966H132.89l-3.495-7.899l-58.097,0.035l-3.736,7.864H55.604l4.242-7.966h-5.11l4.633-8.399h4.904l2.391-4.486
	h-4.668l4.039-7.172h4.426l1.225-2.337h6.668l-1.17,2.337H123.413z M75.346,155.926h52.446l-1.854-4.487l-48.439-0.034
	L75.346,155.926z"/>
<polygon fill="#FFFFFF" points="57.89,120.703 72.798,120.703 72.798,132.482 59.706,132.482 57.89,129.617 "/>
<path fill="#FF8F1C" d="M59.967,126.319c0-1.443,1.17-2.617,2.617-2.617c1.447,0,2.617,1.174,2.617,2.617s-1.17,2.62-2.617,2.62
	C61.137,128.939,59.967,127.763,59.967,126.319"/>
<path fill="#FF8F1C" d="M66.508,126.316c0-1.447,1.173-2.62,2.617-2.62c1.447,0,2.614,1.173,2.614,2.62
	c0,1.443-1.167,2.614-2.614,2.614C67.682,128.931,66.508,127.76,66.508,126.316"/>
<polygon fill="#FFFFFF" points="143.244,120.688 128.336,120.688 128.336,132.467 141.428,132.467 143.244,129.598 "/>
<path fill="#FF8F1C" d="M135.933,126.304c0-1.444,1.171-2.62,2.614-2.62c1.447,0,2.614,1.176,2.614,2.62
	c0,1.443-1.167,2.617-2.614,2.617C137.104,128.921,135.933,127.747,135.933,126.304"/>
<path fill="#FF8F1C" d="M129.392,126.294c0-1.44,1.167-2.614,2.617-2.614c1.443,0,2.614,1.174,2.614,2.614
	c0,1.447-1.171,2.62-2.614,2.62C130.559,128.914,129.392,127.741,129.392,126.294"/>
<polygon fill="#FFFFFF" points="128.984,120.754 129.111,140.22 124.128,140.276 124.128,135.15 117.807,135.15 117.807,125.963 
	83.328,125.963 83.328,135.15 77.076,135.15 77.076,140.276 72.032,140.22 72,120.754 "/>
<path fill="#FFFFFF" d="M36.473,172.233V42.979c0-17.443,8.961-21.781,18.4-21.758c0.006,0.013,76.659-0.022,82.424-0.022
	c16.791,0,26.207,4.494,26.207,19.653v131.382h-10.192V40.486c0-3.361-0.066-8.942-7.8-8.942l-88.289,0.009
	c-10.784-0.009-10.498,5.934-10.498,9.877l-0.159,130.803H36.473z"/>
</svg>
