<svg id="septa-logo" version="1.1" xmlns="http://www.w3.org/2000/svg" xmlns:xlink="http://www.w3.org/1999/xlink" x="0px" y="0px"  width="126.9px" height="23px" viewBox="0 0 126.9 23" style="enable-background:new 0 0 126.9 23;" xml:space="preserve" preserveAspectRatio="xMinYMin meet">
	<style type="text/css">
		<![CDATA[ .blue{fill:#E10000;} .white{fill:#fff;} .red{fill:#000E78;} ]]>
	</style>
	<path class="white" d="M3.7,0h23.6C29.3,0,31,1.6,31,3.6v15.7c0,2-1.7,3.6-3.7,3.6H3.7c-2.1,0-3.7-1.6-3.7-3.6V3.6C0,1.6,1.7,0,3.7,0 z"/>
	<path class="red" d="M3.6,22h6.3l9.9-7h-9.2L3.4,7.9l7-7H3.6C2,0.9,0.9,2.5,0.9,3.6v15.7C0.9,20.5,2,22,3.6,22z"/>
	<path class="blue" d="M30.2,3.6v15.7c0,1.1-1.2,2.7-2.7,2.7h-6.7l6.9-7l-7.2-7.2h-9.2l9.9-7h6.3C29,0.9,30.2,2.5,30.2,3.6z M12.8,8.6h-0.9l5.4,5.4c0.2,0.2,0.4,0.5,0.9,0.4h0.9L13.7,9C13.4,8.7,13.3,8.6,12.8,8.6z"/>
	<path class="blue" d="M31.9,22.1L31.9,22.1C31.9,22.1,31.9,22.1,31.9,22.1c-0.1-0.2-0.1-0.2-0.2-0.3c-0.1-0.1-0.1-0.1-0.2-0.1 	c-0.1,0-0.2,0-0.3,0c-0.1,0-0.2,0-0.3,0c-0.1,0-0.2,0.1-0.2,0.2c-0.1,0.1-0.1,0.1-0.2,0.2c0,0,0,0.1,0,0.1c0,0.1,0,0.1,0,0.2 c0,0.1,0,0.2,0.1,0.3c0,0.1,0.1,0.2,0.2,0.2c0.1,0.1,0.1,0.1,0.2,0.1c0.1,0,0.2,0.1,0.3,0.1c0.1,0,0.2,0,0.3-0.1 	c0.1-0.1,0.2-0.2,0.2-0.2c0.1-0.1,0.1-0.2,0.1-0.3C32,22.3,32,22.2,31.9,22.1z M31.8,22.6c0,0.1-0.1,0.2-0.2,0.2 	c-0.1,0-0.2,0.1-0.3,0.1c-0.1,0-0.2,0-0.3-0.1c-0.1-0.1-0.2-0.1-0.2-0.2c0-0.1-0.1-0.2-0.1-0.3c0-0.1,0-0.1,0-0.2l0,0c0,0,0,0,0,0 	c0-0.1,0.1-0.1,0.1-0.2c0,0,0.1-0.1,0.2-0.1c0.1,0,0.1,0,0.2,0c0.1,0,0.2,0,0.2,0c0.1,0,0.1,0.1,0.2,0.1c0,0.1,0.1,0.1,0.1,0.2 	c0,0,0,0,0,0h0c0,0.1,0,0.1,0,0.2C31.8,22.4,31.8,22.5,31.8,22.6z M31.5,22.3C31.5,22.3,31.5,22.3,31.5,22.3 	c0.1-0.1,0.1-0.1,0.1-0.2c0-0.1,0-0.1-0.1-0.2c0,0-0.1-0.1-0.2-0.1H31v0.2v0.2v0.4h0.1v-0.3h0.1l0.2,0.3h0.1l-0.2-0.3 	C31.4,22.4,31.5,22.4,31.5,22.3z M31.1,22h0.2c0.1,0,0.2,0,0.2,0.1c0,0.1,0,0.1-0.1,0.1c0,0-0.1,0-0.1,0h-0.1v-0.1V22z"/>
	<path class="red" d="M34.9,16h4.2c0,0.8,0.2,1.4,0.6,1.9c0.4,0.5,0.9,0.8,1.5,1.1c0.6,0.2,1.3,0.4,2,0.4c3,0,4.5-0.9,4.6-2.5 c0-0.6-0.2-1-0.5-1.4c-0.3-0.3-0.7-0.6-1.1-0.7c-0.4-0.2-1.2-0.4-2.2-0.6c-0.9-0.2-1.5-0.4-2-0.4c-1.4-0.3-2.6-0.6-3.5-1 c-1-0.4-1.7-1-2.3-1.9c-0.6-0.8-0.9-1.9-0.9-3.3c0-1.3,0.4-2.3,1-3.3c0.6-1,1.5-1.7,2.7-2.2c1.2-0.5,2.6-0.8,4.2-0.8 c1.5,0,2.8,0.2,3.9,0.6c1,0.4,1.9,1,2.5,1.6c0.6,0.6,1.1,1.4,1.4,2.1c0.3,0.8,0.4,1.6,0.5,2.3h-4.2c-0.2-2-1.6-3.1-4.3-3.1 c-1,0-1.8,0.2-2.5,0.6c-0.7,0.4-1,1-1.1,1.7c0,1.1,0.6,1.8,1.7,2.1c1,0.2,2,0.5,2.9,0.7c0.9,0.2,1.6,0.4,2,0.5 c1.5,0.4,2.7,0.8,3.5,1.2c0.8,0.4,1.5,1,1.9,1.7c0.4,0.7,0.6,1.7,0.6,2.8c0,1.4-0.3,2.6-1,3.5c-0.6,0.9-1.4,1.6-2.3,2.1 c-0.9,0.5-1.8,0.8-2.6,0.9c-0.8,0.2-1.5,0.2-2.1,0.2C38.1,22.9,35,20.6,34.9,16z M70.9,22.3v-3.6H59.5v-5.4h10.1V9.7H59.5V5.2h10.9 V1.6H55.2v20.6H70.9z M90,8c0,0.1,0,0.2,0,0.3c0,1.8-0.5,3.3-1.5,4.5c-1,1.3-2.6,1.9-5,1.9h-5v7.6h-4.3v-14V1.6h9.5 c1,0,1.9,0.2,2.7,0.5c0.8,0.4,1.4,0.8,1.9,1.4c0.6,0.6,1,1.3,1.2,2C89.9,6.3,90,7.1,90,8z M85.8,8.3c0-1-0.2-1.7-0.7-2.3 c-0.4-0.5-1.4-0.8-3-0.8h-3.5v3.1v3h4c0.9,0,1.6-0.2,2.1-0.4c0.5-0.3,0.8-0.6,0.9-1.1C85.7,9.4,85.8,8.9,85.8,8.3z M102.2,22.3V5.2 h6.1V1.6H91.7v3.6H98v17.1H102.2z M126.9,22.3h-4.7l-1.3-4.3h-7.6l-1.5,4.3h-4.5l4.2-11.8l3.1-8.8h5l3.1,8.8L126.9,22.3z  M119.7,14.6l-1.3-4.2l-1.3-4.2H117l-1.3,4.2l-1.3,4.2H119.7z"/>
</svg>